
<svg xmlns="http://www.w3.org/2000/svg" class="logo__svg lazyloaded" viewBox="0 0 449 566"> <g fill="none" fill-rule="evenodd" transform="translate(2,0)"> <g fill="#fff" transform="translate(81,356) rotate(30)" class="monkey"> <path d="M105.35,164.33C103.71,160.72,100.28,160.12,97.84,163.19C96.32,165.09,95.43,167.49,94.23,169.65C92.86,172.1,91.83,174.85,90.03,176.93C82.95,185.14,73.55,184.67,64.2,182.93C58.01,181.76,52.54,178.59,47.4,174.93C31.97,163.83,22.4,149.15,19.75,130.18C19.7138,129.422,19.7473,128.662,19.85,127.91C20.9672,128.847,21.9888,129.892,22.9,131.03C25.85,133.84,28.67,136.87,32,139.16C35.48,141.55,38.35,141.07,41.43,138.16C44.2022,135.485,46.7788,132.614,49.14,129.57C50.373,127.819,51.3245,125.885,51.96,123.84C53.1,120.64,52.16,118.11,49.6,115.84C47.91,114.32,45.83,112.92,45.85,109.93L48.09,110.21C52.25,110.76,56.4,111.48,60.57,111.84C64.4,112.17,67.47,110.67,68.99,106.93C71.27,101.28,72.61,95.52,70.9,89.4C70.18,86.85,68.71,85.86,66.02,85.95C65.02,85.95,64.02,85.95,62.97,86.01C55.3016,89.8565,46.382,90.3532,38.334,87.3818C30.2859,84.4105,23.8291,78.2368,20.5,70.33C19.927,70.4131,19.349,70.4565,18.77,70.46C14.3335,70.5871,10.1785,68.2929,7.92272,64.4705C5.66695,60.6482,5.66695,55.9018,7.92272,52.0795C10.1785,48.2571,14.3335,45.9629,18.77,46.09C19.3523,46.0943,19.9336,46.1377,20.51,46.22C20.74,45.67,21.02,45.13,21.29,44.59C21.5111,42.4907,21.8922,40.4113,22.43,38.37C22.3464,38.0436,22.326,37.7041,22.37,37.37C23.31,31.58,23.64,25.55,28.84,21.37C29.6656,20.545,30.0385,19.3701,29.84,18.22C29.01,15.82,28.71,12.66,24.84,12.9C25.05,12.41,25.09,12.08,25.26,11.99C28.12,10.52,27.62,7.61,27.74,5.28C27.83,3.28,24.12,0.7,21.66,0.53C15.94,0.15,10.43,0.75,5.5,4.12C2.96,5.85,0.21,7.32,0.28,10.99L0.28,12.53C1.48,17.53,4.07,22.53,0.28,27.47L0.28,28.47C0.63,29.19,1.28,29.9,1.28,30.62C1.33,34.99,1.09,39.37,1.2,43.74C1.53,56.07,1.71,68.42,2.48,80.74C3.12,91.07,4.26,101.38,5.66,111.64C6.95838,120.344,9.28463,128.864,12.59,137.02C16.93,148.08,22.38,158.54,30,167.67C41.76,181.75,56.35,190.47,75.34,189.97C78.9235,189.889,82.4994,189.602,86.05,189.11C93.97,187.98,100.69,184.66,104.57,177.31C106.76,173.18,107.35,168.73,105.35,164.33Z"></path> <path d="M38.89,57.86C37.3767,57.86,36.15,59.0867,36.15,60.6C36.15,62.1133,37.3767,63.34,38.89,63.34C40.4033,63.34,41.63,62.1133,41.63,60.6C41.6327,59.8725,41.3448,59.174,40.8304,58.6596C40.316,58.1452,39.6175,57.8573,38.89,57.86ZM58.83,57.86C57.3167,57.86,56.09,59.0867,56.09,60.6C56.09,62.1133,57.3167,63.34,58.83,63.34C60.3433,63.34,61.57,62.1133,61.57,60.6C61.57,59.0867,60.3433,57.86,58.83,57.86Z" fill-rule="nonzero"></path> <path d="M78.62,48.1C77.8522,48.1022,77.0871,48.1928,76.34,48.37C73.1018,39.3595,65.6125,32.5367,56.34,30.15C55.41,29.92,54.47,29.72,53.52,29.58C50.6042,29.1267,47.6358,29.1267,44.72,29.58C41.899,30.0023,39.1581,30.8485,36.59,32.09C29.6835,35.4262,24.3799,41.3626,21.84,48.6C20.8535,48.2698,19.8203,48.101,18.78,48.1C13.2378,48.1,8.745,52.5928,8.745,58.135C8.745,63.6772,13.2378,68.17,18.78,68.17C19.8203,68.169,20.8535,68.0002,21.84,67.67C25.8661,79.2525,36.7655,87.0315,49.0277,87.0743C61.2899,87.117,72.2432,79.4142,76.35,67.86C80.048,68.6013,83.8485,67.1989,86.1786,64.2333C88.5088,61.2677,88.9722,57.2433,87.3771,53.8257C85.7819,50.4081,82.3997,48.1786,78.63,48.06L78.62,48.1ZM49.15,83.56C35.1123,83.5435,23.7365,72.1677,23.72,58.13C23.7226,57.1945,23.776,56.2597,23.88,55.33C25.4964,49.3219,30.9383,45.1421,37.16,45.13C42.2053,45.1367,46.7807,48.0931,48.86,52.69C50.9373,48.0913,55.5139,45.1342,60.56,45.13C67.66,45.13,74.17,51,74.17,58.13L74.3,61.74C72.4974,74.2491,61.7883,83.5402,49.15,83.56Z" fill-rule="nonzero"></path> </g> <g fill-rule="nonzero" stroke="#fff" stroke-width="5" transform="translate(0,9)"> <path d="M315.46,136.38C318.99,150.09,324.36,166.17,328.06,185.38C331.76,204.59,333.54,221.13,333.4,235.04C333.26,248.95,331.14,259.94,327.2,267.97C323.26,276,318.46,282.16,312.81,286.3C306.741,290.568,299.841,293.512,292.56,294.94C260.56,301.83,238.18,271.94,224.8,204.78C215.18,156.37,216.53,125.88,229.32,113.04C242.11,100.2,255.1,92.23,268.12,89.19C272.96,88.09,276.56,87.61,278.93,87.9C281.3,88.19,284.73,89.84,289.23,92.9C293.73,95.96,298.07,100.47,302.12,106.59C308.177,115.515,312.652,125.417,315.35,135.86L315.46,136.38ZM257.76,195.38C261.213,213.593,266.053,229.657,272.28,243.57C278.52,257.49,284.02,264.43,288.82,264.57C293,263.65,295.61,255.22,296.6,239.15C297.607,223.283,296.545,207.353,293.44,191.76C290.34,176.173,285.818,160.902,279.93,146.14C273.98,131.26,267.69,124.67,261.15,126.05C250.35,128.2,249.22,151.18,257.76,195.39L257.76,195.38ZM205.91,123.2C209.09,135.55,213.91,150.04,217.26,167.32C220.61,184.6,222.34,199.47,222.36,211.97C222.38,224.47,220.67,234.31,217.36,241.48C214.05,248.65,209.98,254.13,205.15,257.79C199.991,261.559,194.063,264.14,187.79,265.35C160.28,271.22,140.7,244.13,128.49,183.7C119.72,140.13,120.58,112.76,131.49,101.36C142.4,89.96,153.49,82.93,164.67,80.36C168.84,79.43,171.93,79.04,173.98,79.36C176.03,79.68,178.98,81.16,182.9,83.92C187.409,87.3077,191.227,91.5269,194.15,96.35C199.459,104.462,203.398,113.391,205.81,122.78L205.91,123.2ZM156.79,175.61C159.496,190.525,163.856,205.092,169.79,219.04C175.3,231.6,180.11,237.89,184.25,238.04C187.85,237.25,190.01,229.71,190.7,215.28C191.406,201.009,190.331,186.705,187.5,172.7C184.676,158.67,180.631,144.915,175.41,131.59C170.13,118.17,164.64,112.19,159.02,113.37C149.76,115.2,148.98,135.86,156.79,175.61Z"></path> <path d="M110.27,159.54C119.07,178.753,118.093,212.17,107.34,259.79C115.16,257.123,124.493,255.873,135.34,256.04C146.187,256.207,154.313,262.183,159.72,273.97C163.313,281.602,163.92,290.303,161.42,298.36C158.98,306.653,152.867,315.393,143.08,324.58C133.475,333.61,122.481,341.038,110.52,346.58L102.52,350.29L84.41,357.29C83.28,356.7,75.41,340.08,60.41,307.77L38.96,261.92C24.58,231.01,12.07,200.92,0.76,172.02C4.42,165.91,10.5,159.45,19.26,152.72C28.02,145.99,36.75,141.07,45.5,138.07C77.4,127.32,98.94,134.38,110.32,159.19L110.27,159.54ZM56.27,164.39C52.17,165.8,48.16,168.79,44.42,173.31L79.42,259.11C86.6867,225.65,84.7367,196.967,73.57,173.06C69.71,164.653,63.87,161.787,56.05,164.46L56.27,164.39ZM123.65,290.2C121.507,285.642,117.778,282.02,113.16,280.01C108.21,277.65,102.97,277.5,97.16,279.47C94.9362,280.258,92.8145,281.309,90.84,282.6L109.16,322.6C111.643,321.535,113.971,320.139,116.08,318.45C118.666,316.64,120.914,314.389,122.72,311.8C124.387,309.031,125.39,305.912,125.65,302.69C126.097,298.97,125.293,294.867,123.24,290.38L123.65,290.2ZM331.06,3.6C338.13,2.47,343.42,3.44,346.91,6.36C350.482,9.39513,352.74,13.696,353.21,18.36C353.86,23.36,352.6,28.73,349.4,34.23C346.2,39.73,340.56,43.23,332.46,44.49C324.36,45.75,318.23,45.26,314.07,42.9C310.11,40.7772,307.41,36.8828,306.81,32.43C304.19,16.08,312.32,6.43,331.33,3.43L331.06,3.6ZM372.48,210.6L345.6,221.09L319.73,59.35L350.53,52.61L372.48,210.6ZM412.51,225.35C406.19,225.93,401.57,224.64,398.64,221.62C395.71,218.6,394.16,214.62,393.85,209.78C393.54,204.94,394.95,200.12,398.07,194.98C401.19,189.84,406.35,186.98,413.58,186.29C420.81,185.6,426.2,186.56,429.58,189.11C432.956,191.508,435.075,195.298,435.35,199.43C436.897,214.99,429.193,223.543,412.24,225.09L412.51,225.35ZM387.1,6.57L419.91,0L424.91,170.7L399.67,173L387.1,6.57Z"></path> </g> <g fill="#fff" fill-rule="nonzero" transform="translate(11,0)"> <path d="M315.57,133.55C319.1,147.27,324.47,163.34,328.17,182.55C331.87,201.76,333.65,218.29,333.52,232.21C333.39,246.13,331.26,257.11,327.31,265.14C323.36,273.17,318.58,279.32,312.92,283.46C306.857,287.732,299.96,290.676,292.68,292.1C260.68,298.99,238.29,269.1,224.91,201.95C215.29,153.54,216.64,123.05,229.44,110.21C242.24,97.37,255.22,89.4,268.23,86.35C273.08,85.25,276.67,84.78,279.04,85.06C281.41,85.34,284.85,87,289.34,90.06C294.491,93.7399,298.87,98.3945,302.23,103.76C308.28,112.689,312.746,122.594,315.43,133.04L315.57,133.55ZM257.88,192.55C261.32,210.77,266.16,226.837,272.4,240.75C278.63,254.66,284.13,261.6,288.93,261.75C293.12,260.82,295.72,252.39,296.72,236.32C297.724,220.456,296.658,204.529,293.55,188.94C290.455,173.352,285.936,158.082,280.05,143.32C274.1,128.43,267.8,121.85,261.26,123.23C250.5,125.37,249.35,148.35,257.88,192.56L257.88,192.55ZM204.35,121.69C207.53,134.04,212.35,148.53,215.7,165.81C219.05,183.09,220.78,197.96,220.8,210.46C220.82,222.96,219.1,232.8,215.8,239.97C212.5,247.14,208.42,252.62,203.59,256.29C198.429,260.057,192.502,262.641,186.23,263.86C158.71,269.73,139.13,242.65,126.93,182.22C118.16,138.64,119.02,111.28,129.93,99.87C140.84,88.46,151.93,81.44,163.12,78.87C167.29,77.93,170.38,77.54,172.43,77.87C174.48,78.2,177.43,79.67,181.35,82.43C185.859,85.8138,189.677,90.0298,192.6,94.85C197.91,102.964,201.85,111.897,204.26,121.29L204.35,121.69ZM155.22,174.11C157.931,189.02,162.292,203.583,168.22,217.53C173.73,230.09,178.54,236.38,182.68,236.53C186.27,235.74,188.44,228.19,189.13,213.77C189.837,199.496,188.762,185.189,185.93,171.18C183.103,157.154,179.058,143.402,173.84,130.08C168.56,116.65,163.07,110.67,157.45,111.85C148.21,113.69,147.44,134.32,155.24,174.11L155.22,174.11Z"></path> <path d="M109.78,148.58C118.58,167.78,117.603,201.193,106.85,248.82C114.663,246.153,123.997,244.907,134.85,245.08C145.703,245.253,153.827,251.227,159.22,263C162.82,270.63,163.43,279.332,160.93,287.39C158.49,295.69,152.373,304.43,142.58,313.61C132.98,322.641,121.989,330.069,110.03,335.61L102.03,339.31L83.92,346.31C82.79,345.72,74.92,329.11,59.92,296.79L38.47,250.95C24.08,220.03,11.58,189.95,0.27,161.05C3.93,154.93,10.01,148.47,18.77,141.75C27.53,135.03,36.26,130.09,45.01,127.1C76.91,116.34,98.5133,123.377,109.82,148.21L109.78,148.58ZM55.78,153.43C51.68,154.83,47.67,157.82,43.93,162.35L78.93,248.14C86.1967,214.68,84.2467,186.013,73.08,162.14C69.22,153.727,63.38,150.86,55.56,153.54L55.78,153.43ZM123.15,279.24C121.007,274.68,117.279,271.054,112.66,269.04C107.66,266.68,102.47,266.53,96.66,268.5C94.4383,269.29,92.3198,270.344,90.35,271.64L108.66,311.64C111.145,310.569,113.476,309.17,115.59,307.48C118.176,305.67,120.424,303.419,122.23,300.83C123.895,298.059,124.897,294.942,125.16,291.72C125.613,288,124.81,283.897,122.75,279.41L123.15,279.24ZM331.62,2.1C338.69,0.96,343.98,1.93,347.47,4.85C351.042,7.88513,353.3,12.186,353.77,16.85C354.42,21.85,353.16,27.22,349.96,32.72C346.76,38.22,341.12,41.72,333.02,42.99C324.92,44.26,318.79,43.75,314.63,41.39C310.647,39.26,307.936,35.3389,307.35,30.86C304.73,14.51,312.86,4.86,331.87,1.86L331.62,2.1ZM373.04,209.1L346.16,219.6L320.29,57.86L351.09,51.12L373.04,209.1ZM412.51,225.35C406.19,225.93,401.57,224.64,398.64,221.62C395.71,218.6,394.16,214.62,393.85,209.78C393.54,204.94,394.96,200.12,398.07,194.98C401.18,189.84,406.35,186.98,413.58,186.29C420.81,185.6,426.2,186.56,429.58,189.1C432.952,191.506,435.07,195.297,435.35,199.43C436.91,214.99,429.207,223.543,412.24,225.09L412.51,225.35ZM387.1,6.57L419.91,0L424.91,170.69L399.66,173L387.1,6.57Z"></path> </g> </g> </svg>
